<svg xmlns="http://www.w3.org/2000/svg" width="535" height="535" viewBox="0 0 501.56252 501.56251"><path d="m206.435 337.938 244.415.012-27.623 48.897-65.561-.182 32.558 56.737-13.96 24.159-28.528.031-46.301-80.784-66.693-.135Z" fill="#5bcefa"/><path d="m153.116 255.919 122.197 211.675-56.157.527-32.624-56.87-32.856 56.566-27.903-.011-14.291-24.69 46.811-80.49-33.23-57.826Z" fill="#fff"/><path d="M197.222 168.728 75.004 380.391l-28.5348-48.37 32.9384-56.688-65.4152-.172L.05072 250.992l14.23638-24.721 93.1119.294 33.464-57.691Z" fill="#f5a9b8"/><path d="M348.855 245.182 226.659 33.5071l56.157-.5268 32.623 56.8692 32.857-56.5653 27.902.011 14.291 24.6896-46.811 80.4902 33.23 57.826Z" fill="#fff"/><path d="m294.869 162.687-244.4144-.012 27.6223-48.897 65.5621.182-32.559-56.7373 13.961-24.1587 28.527-.0314 46.301 80.7844 66.693.135Z" fill="#5bcefa"/><path d="M304.472 332.341 426.69 120.678l28.535 48.37-32.939 56.687 65.415.172 13.942 24.17-14.236 24.721-93.112-.294-33.464 57.69Z" fill="#f5a9b8"/></svg>